PathFileType	4	(X/Y/Z)	pose_F01_0-96.trc
DataRate	CameraRate	NumFrames	NumMarkers	Units	OrigDataRate	OrigDataStartFrame	OrigNumFrames
30	30	6	21	m	30	84	96
Frame#	Time	CHip			RHip			RKnee			RAnkle			RBigToe			RSmallToe			RHeel			LHip			LKnee			LAnkle			LBigToe			LSmallToe			LHeel			Neck			Nose			RShoulder			RElbow			RWrist			LShoulder			LElbow			LWrist			
		X1	Y1	Z1	X2	Y2	Z2	X3	Y3	Z3	X4	Y4	Z4	X5	Y5	Z5	X6	Y6	Z6	X7	Y7	Z7	X8	Y8	Z8	X9	Y9	Z9	X10	Y10	Z10	X11	Y11	Z11	X12	Y12	Z12	X13	Y13	Z13	X14	Y14	Z14	X15	Y15	Z15	X16	Y16	Z16	X17	Y17	Z17	X18	Y18	Z18	X19	Y19	Z19	X20	Y20	Z20	X21	Y21	Z21	
84	2.8	-0.20514226406219074	1.8509090831584454	-0.5076990021643815	-0.21931520671614016	1.8476051104605007	-0.4559032239542736	-0.2502023107476484	1.7153654992023424	-0.47813567032615284													-0.1867534619953384	1.8534631496100569	-0.5669103513970435	-0.1954664129534589	1.7223991386663486	-0.6074602117449521	-0.17758056336546166	1.6186516378349036	-0.541950720454047	-0.18882545735479916	1.592286418514262	-0.5928919465190375	-0.17680471395467182	1.6025089850168481	-0.5977979819404956	-0.17542724379868346	1.6124734640756249	-0.5125360995255074	-0.2017097170175556	2.000906046734266	-0.5297781423508525	-0.20501606123280536	2.072903379441194	-0.5671699265603436	-0.22123133908873618	2.0001144959154193	-0.4612584678709294	-0.2529582385326047	2.0338065925455697	-0.44421474030114433	-0.2468479545095346	2.0873409049752696	-0.4883289451466024	-0.17858727856958068	2.00395913512608	-0.601261638596168	-0.1536193872614475	2.008903853311193	-0.7366216656176872	-0.16106846458293675	2.06459007919843	-0.6910243748277057
85	2.8333333333333335	-0.20447206323491535	1.8397724618969176	-0.50245179475274	-0.21859197438104405	1.8368554759784361	-0.45063479603277545	-0.25047371824806586	1.7111593371164653	-0.47495849122404354													-0.18737233205624348	1.8428459581106347	-0.5566349653122774	-0.197686940304308	1.71651537932674	-0.6003223807706822	-0.1797148915891191	1.6179542171707366	-0.5396520613902562	-0.18868444015720828	1.5939198409646964	-0.5935618098998495	-0.17747872396031386	1.603398851548734	-0.6019605642738743	-0.17736866614176394	1.6108068062378789	-0.510426125654219	-0.1981472020792447	1.9941455917987865	-0.5339687765808913	-0.19674803562568077	2.062795403323298	-0.5826977236921095	-0.21858358269867845	1.994729235919878	-0.46846834723581593	-0.24817429293163137	2.0096285936930314	-0.46478570942404446	-0.2415399446369381	2.0602636653444852	-0.5227833980011694	-0.17870714493798293	1.9951946408642325	-0.6091827879274786	-0.15497728589490667	1.9864871192746099	-0.7368257546420394	-0.16530065062660318	2.0448894988106425	-0.6923786017813742
86	2.8666666666666667	-0.19942517336093246	1.8347996970766793	-0.49410742754147025	-0.21354719652728318	1.8333303453416796	-0.44235748514595064	-0.25074512574848323	1.7069531750305882	-0.47178131212193425													-0.1833923147065022	1.8356243549080862	-0.5511857291741515	-0.19730173446415214	1.7179001656112531	-0.5965093766065351	-0.17932005280873684	1.6181393626017935	-0.5357789452638633	-0.18592046915661914	1.593248959080181	-0.5919877422336739	-0.17469818497015302	1.6028049489080838	-0.6000612295635909	-0.17994306864179088	1.6114349286363614	-0.5075157330395824	-0.19529988421054892	1.988669231085106	-0.5414006090213606	-0.19708812149022478	2.0449858158521197	-0.6073328500878116	-0.2159877365245068	1.9888376453752	-0.4759123952814764	-1.7016099795178286	1.879201547452648	1.0878517057908683	-0.23371356522257067	2.0178431696097427	-0.5312701205327407	-1.5979783274029937	1.8981661652209232	0.9214199652561902	-1.303297461647595	1.875671909306989	0.45289544193284287	-0.16400463207779092	2.0243252508410707	-0.7038043526280265
87	2.9	-0.19732509571576243	1.8401659543260922	-0.48825183973353414	-0.20942904887819616	1.8377946390936137	-0.4385181207456945	-0.24708308184701974	1.71294700458714	-0.467607702125507													-0.1805052410793417	1.8407259217681586	-0.542031704539865	-0.1923521337237157	1.7225633017846091	-0.6023378714167213	-0.1804564978774846	1.6198202183297494	-0.5387914893750541	-0.18425852643203372	1.595680880116234	-0.606705401735574	-0.17309795476062642	1.605658082264548	-0.6148454002705447	-0.1802579959374052	1.6131211443789926	-0.5072573957678951	-0.19395256180680687	1.9907352658553785	-0.5554367484749883	-0.19173497845970588	2.0426366371663836	-0.6168950378233603	-0.21293992415590277	1.9915340470867915	-0.48395075155226963	-0.24804688161296304	1.957410177415458	-0.5032159826484353	-0.23872028139189314	2.013621937499568	-0.5558148137177418	-1.5868535545980613	1.8966026299963112	0.9025510248880709	-1.3019131064251603	1.862956671933787	0.4535638488206379	-0.15922476547361908	2.0117393672293313	-0.7262618627413032
88	2.933333333333333	-0.19565216779602657	1.8436772694673933	-0.4911044090256179	-0.20983329922701424	1.8423693607022484	-0.4393504739039267	-0.24394889170473033	1.7166912969734365	-0.4578064084674266													-0.1787732466013486	1.8442071257934418	-0.5448734813511189	-0.18276733486583233	1.7276358540305605	-0.6173401944039486	-0.17845681521287496	1.6211152579052353	-0.5408844980046001	-0.17428340496419953	1.6015810349084356	-0.6171079674373545	-0.16653900302944216	1.6093036339930729	-0.6217876050506679	-0.17945575941136405	1.61396191241153	-0.5040285785695513	-0.1928812795535552	1.9930204378896972	-0.5527855822850642	-0.1953305531856607	2.044470230950016	-0.6303660395062393	-0.21472821542172396	1.993878707074738	-0.4817472643393248	-0.24252883716180276	1.9376250382001894	-0.5074775031421358	-0.22078489244365965	1.995729945416056	-0.5737598165480401	-0.1698587248027872	1.9918125259365675	-0.6262131498080135	-0.14789696820195342	1.9427226111671825	-0.7214003616814693	-0.1529914014850574	2.0077179608598787	-0.7333879980471898
89	2.966666666666667	-0.19560453262260527	1.8477245164459701	-0.5004857217845471	-0.20998254650640155	1.8462329913040514	-0.448855960906981	-0.2419191987910229	1.7171573862734253	-0.4510586824288169													-0.17862235613316366	1.8494742081307083	-0.5457709367700977	-0.1748640622837063	1.736961201213812	-0.6308072777863081	-0.17664479662890323	1.6229995733085871	-0.5429695589335093	-0.17025477046111756	1.6035388218664446	-0.6215433400617144	-0.16648085258808354	1.609638035692642	-0.6220216492265638	-0.17931128049545195	1.6134044460654333	-0.5039796271690344	-0.18874947270307416	1.9976658817347674	-0.5488755569816031	-0.1923323597505208	2.0412291328790197	-0.6287234683696491	-0.21364103243605287	2.0017908087382295	-0.4804572277946305	-0.2337311679552912	1.9350858969274252	-0.4953719260577503	-0.22052954016695409	1.9928642251269848	-0.5724376291963189	-0.1642048132617361	1.9983306642197494	-0.6170729200158294	-0.14636984557567465	1.9454000445523054	-0.7156314127820824	-0.15070084281493693	2.0094348560454196	-0.7360644674171767
